<svg xmlns="http://www.w3.org/2000/svg" viewBox="0 0 800 600">
  <style>text { font-family: sans-serif; }</style>
  <rect width="100%" height="100%" fill="#0d1117"/>
  <text x="20" y="30" fill="#ffb000" font-size="20" font-weight="bold">Smriti Knowledge Graph</text>
  <circle cx="30" cy="60" r="8" fill="#f97316"/>
  <text x="50" y="65" fill="#ccc" font-size="14">unnati: 156 nodes</text>
  <circle cx="30" cy="85" r="8" fill="#ffb000"/>
  <text x="50" y="90" fill="#ccc" font-size="14">narad: 43 nodes</text>
  <circle cx="30" cy="110" r="8" fill="#ff6b6b"/>
  <text x="50" y="115" fill="#ccc" font-size="14">career-ops: 42 nodes</text>
  <circle cx="30" cy="135" r="8" fill="#ff6b6b"/>
  <text x="50" y="140" fill="#ccc" font-size="14">social-blueprint-ai: 36 nodes</text>
  <circle cx="30" cy="160" r="8" fill="#3b82f6"/>
  <text x="50" y="165" fill="#ccc" font-size="14">vishwakarma: 34 nodes</text>
  <circle cx="30" cy="185" r="8" fill="#a855f7"/>
  <text x="50" y="190" fill="#ccc" font-size="14">chitragupta: 27 nodes</text>
  <circle cx="30" cy="210" r="8" fill="#ff6b6b"/>
  <text x="50" y="215" fill="#ccc" font-size="14">kanak: 24 nodes</text>
  <circle cx="30" cy="235" r="8" fill="#ff6b6b"/>
  <text x="50" y="240" fill="#ccc" font-size="14">job-hunt-app: 9 nodes</text>
  <circle cx="30" cy="260" r="8" fill="#888888"/>
  <text x="50" y="265" fill="#ccc" font-size="14">General: 8 nodes</text>
  <circle cx="30" cy="285" r="8" fill="#00ff88"/>
  <text x="50" y="290" fill="#ccc" font-size="14">Knowledge: 6 nodes</text>
  <circle cx="30" cy="310" r="8" fill="#ff6b6b"/>
  <text x="50" y="315" fill="#ccc" font-size="14">indra: 5 nodes</text>
  <circle cx="30" cy="335" r="8" fill="#ff6b6b"/>
  <text x="50" y="340" fill="#ccc" font-size="14">n8n: 3 nodes</text>
  <circle cx="30" cy="360" r="8" fill="#ff6b6b"/>
  <text x="50" y="365" fill="#ccc" font-size="14">_root: 2 nodes</text>
  <circle cx="30" cy="385" r="8" fill="#ff6b6b"/>
  <text x="50" y="390" fill="#ccc" font-size="14">README.md: 1 nodes</text>
  <circle cx="30" cy="410" r="8" fill="#ff6b6b"/>
  <text x="50" y="415" fill="#ccc" font-size="14">nisha.md: 1 nodes</text>
  <circle cx="30" cy="435" r="8" fill="#ff6b6b"/>
  <text x="50" y="440" fill="#ccc" font-size="14">nisha-chitragupta: 1 nodes</text>
  <circle cx="30" cy="460" r="8" fill="#ff6b6b"/>
  <text x="50" y="465" fill="#ccc" font-size="14">nisha-vishwakarma: 1 nodes</text>
  <circle cx="30" cy="485" r="8" fill="#ff6b6b"/>
  <text x="50" y="490" fill="#ccc" font-size="14">nisha: 1 nodes</text>
  <circle cx="30" cy="510" r="8" fill="#ff6b6b"/>
  <text x="50" y="515" fill="#ccc" font-size="14">nisha-saas: 1 nodes</text>
  <circle cx="30" cy="535" r="8" fill="#ff6b6b"/>
  <text x="50" y="540" fill="#ccc" font-size="14">nisha-n8n: 1 nodes</text>
</svg>
